<svg xmlns="http://www.w3.org/2000/svg" xmlns:xlink="http://www.w3.org/1999/xlink" version="1.1" width="256" height="256" viewBox="0 0 256 256" xml:space="preserve">
<g style="stroke: none; stroke-width: 0; stroke-dasharray: none; stroke-linecap: butt; stroke-linejoin: miter; stroke-miterlimit: 10; fill: none; fill-rule: nonzero; opacity: 1;" transform="translate(1.4065934065934016 1.4065934065934016) scale(2.81 2.81)">
	<circle cx="45" cy="45" r="45" style="stroke: none; stroke-width: 1; stroke-dasharray: none; stroke-linecap: butt; stroke-linejoin: miter; stroke-miterlimit: 10; fill: rgb(32,196,203); fill-rule: nonzero; opacity: 1;" transform="  matrix(1 0 0 1 0 0) "/>
	<polygon points="14.5,35.27 41.99,46.85 69.49,35.27 41.99,23.69 " style="stroke: none; stroke-width: 1; stroke-dasharray: none; stroke-linecap: butt; stroke-linejoin: miter; stroke-miterlimit: 10; fill: rgb(27,167,173); fill-rule: nonzero; opacity: 1;" transform="  matrix(1 0 0 1 0 0) "/>
	<path d="M 41.995 49.848 c -0.396 0 -0.792 -0.078 -1.165 -0.235 L 13.335 38.034 c -1.112 -0.468 -1.835 -1.558 -1.835 -2.765 s 0.723 -2.296 1.836 -2.765 l 27.495 -11.578 c 0.744 -0.313 1.584 -0.313 2.328 0 l 27.495 11.578 c 1.112 0.468 1.836 1.558 1.836 2.765 s -0.724 2.296 -1.836 2.765 L 43.159 49.612 C 42.787 49.77 42.391 49.848 41.995 49.848 z M 22.23 35.269 l 19.765 8.323 l 19.764 -8.323 l -19.764 -8.323 L 22.23 35.269 z" style="stroke: none; stroke-width: 1; stroke-dasharray: none; stroke-linecap: butt; stroke-linejoin: miter; stroke-miterlimit: 10; fill: rgb(27,167,173); fill-rule: nonzero; opacity: 1;" transform=" matrix(1 0 0 1 0 0) " stroke-linecap="round"/>
	<path d="M 41.995 62.583 c -0.396 0 -0.792 -0.078 -1.164 -0.235 L 13.336 50.77 c -1.527 -0.643 -2.244 -2.402 -1.601 -3.929 c 0.644 -1.527 2.403 -2.242 3.929 -1.601 l 26.331 11.088 L 68.325 45.24 c 1.524 -0.644 3.286 0.073 3.929 1.601 c 0.644 1.526 -0.073 3.286 -1.601 3.929 L 43.159 62.348 C 42.787 62.505 42.391 62.583 41.995 62.583 z" style="stroke: none; stroke-width: 1; stroke-dasharray: none; stroke-linecap: butt; stroke-linejoin: miter; stroke-miterlimit: 10; fill: rgb(27,167,173); fill-rule: nonzero; opacity: 1;" transform=" matrix(1 0 0 1 0 0) " stroke-linecap="round"/>
	<path d="M 41.995 75.319 c -0.396 0 -0.792 -0.078 -1.164 -0.235 L 13.336 63.506 c -1.527 -0.643 -2.244 -2.402 -1.601 -3.929 c 0.644 -1.526 2.403 -2.243 3.929 -1.601 l 26.331 11.088 l 26.331 -11.088 c 1.524 -0.643 3.286 0.072 3.929 1.601 c 0.644 1.526 -0.073 3.286 -1.601 3.929 L 43.159 75.084 C 42.787 75.241 42.391 75.319 41.995 75.319 z" style="stroke: none; stroke-width: 1; stroke-dasharray: none; stroke-linecap: butt; stroke-linejoin: miter; stroke-miterlimit: 10; fill: rgb(27,167,173); fill-rule: nonzero; opacity: 1;" transform=" matrix(1 0 0 1 0 0) " stroke-linecap="round"/>
	<polygon points="17.51,32.26 45.01,43.84 72.5,32.26 45.01,20.68 " style="stroke: none; stroke-width: 1; stroke-dasharray: none; stroke-linecap: butt; stroke-linejoin: miter; stroke-miterlimit: 10; fill: rgb(255,255,255); fill-rule: nonzero; opacity: 1;" transform="  matrix(1 0 0 1 0 0) "/>
	<path d="M 45.005 46.837 c -0.396 0 -0.792 -0.078 -1.164 -0.235 L 16.346 35.023 c -1.113 -0.468 -1.836 -1.558 -1.836 -2.765 s 0.723 -2.296 1.836 -2.765 l 27.495 -11.578 c 0.744 -0.313 1.583 -0.313 2.329 0 l 27.494 11.578 c 1.112 0.468 1.836 1.558 1.836 2.765 s -0.724 2.296 -1.836 2.765 L 46.17 46.602 C 45.797 46.759 45.401 46.837 45.005 46.837 z M 25.24 32.259 l 19.765 8.323 l 19.764 -8.323 l -19.764 -8.323 L 25.24 32.259 z" style="stroke: none; stroke-width: 1; stroke-dasharray: none; stroke-linecap: butt; stroke-linejoin: miter; stroke-miterlimit: 10; fill: rgb(255,255,255); fill-rule: nonzero; opacity: 1;" transform=" matrix(1 0 0 1 0 0) " stroke-linecap="round"/>
	<path d="M 45.005 59.573 c -0.396 0 -0.792 -0.078 -1.165 -0.235 L 16.346 47.76 c -1.527 -0.644 -2.243 -2.402 -1.6 -3.93 c 0.644 -1.526 2.401 -2.242 3.929 -1.6 l 26.331 11.088 L 71.336 42.23 c 1.523 -0.643 3.286 0.073 3.929 1.6 c 0.644 1.527 -0.073 3.286 -1.601 3.93 L 46.17 59.338 C 45.797 59.495 45.401 59.573 45.005 59.573 z" style="stroke: none; stroke-width: 1; stroke-dasharray: none; stroke-linecap: butt; stroke-linejoin: miter; stroke-miterlimit: 10; fill: rgb(255,255,255); fill-rule: nonzero; opacity: 1;" transform=" matrix(1 0 0 1 0 0) " stroke-linecap="round"/>
	<path d="M 45.005 72.309 c -0.396 0 -0.792 -0.078 -1.164 -0.235 L 16.346 60.495 c -1.527 -0.643 -2.244 -2.402 -1.601 -3.929 c 0.644 -1.526 2.403 -2.242 3.929 -1.601 l 26.331 11.088 l 26.331 -11.088 c 1.523 -0.644 3.286 0.072 3.929 1.601 c 0.644 1.526 -0.073 3.286 -1.601 3.929 L 46.17 72.073 C 45.797 72.23 45.401 72.309 45.005 72.309 z" style="stroke: none; stroke-width: 1; stroke-dasharray: none; stroke-linecap: butt; stroke-linejoin: miter; stroke-miterlimit: 10; fill: rgb(255,255,255); fill-rule: nonzero; opacity: 1;" transform=" matrix(1 0 0 1 0 0) " stroke-linecap="round"/>
</g>
</svg>